<?xml version="1.0" encoding="UTF-8" standalone="no"?>
<svg
   xmlns:dc="http://purl.org/dc/elements/1.1/"
   xmlns:cc="http://creativecommons.org/ns#"
   xmlns:rdf="http://www.w3.org/1999/02/22-rdf-syntax-ns#"
   xmlns:svg="http://www.w3.org/2000/svg"
   xmlns="http://www.w3.org/2000/svg"
   xmlns:sodipodi="http://sodipodi.sourceforge.net/DTD/sodipodi-0.dtd"
   xmlns:inkscape="http://www.inkscape.org/namespaces/inkscape"
   width="210mm"
   height="297mm"
   viewBox="0 0 210 297"
   version="1.1"
   id="svg8"
   inkscape:version="1.0.2-2 (e86c870879, 2021-01-15)"
   sodipodi:docname="agri_energy_logo_v1.1.svg">
  <defs
     id="defs2" />
  <sodipodi:namedview
     id="base"
     pagecolor="#ffffff"
     bordercolor="#666666"
     borderopacity="1.0"
     inkscape:pageopacity="0.0"
     inkscape:pageshadow="2"
     inkscape:zoom="0.7"
     inkscape:cx="854.65157"
     inkscape:cy="573.86047"
     inkscape:document-units="mm"
     inkscape:current-layer="layer1"
     inkscape:document-rotation="0"
     showgrid="false"
     inkscape:window-width="2560"
     inkscape:window-height="1057"
     inkscape:window-x="1912"
     inkscape:window-y="-8"
     inkscape:window-maximized="1" />
  <metadata
     id="metadata5">
    <rdf:RDF>
      <cc:Work
         rdf:about="">
        <dc:format>image/svg+xml</dc:format>
        <dc:type
           rdf:resource="http://purl.org/dc/dcmitype/StillImage" />
        <dc:title></dc:title>
      </cc:Work>
    </rdf:RDF>
  </metadata>
  <g
     inkscape:label="Layer 1"
     inkscape:groupmode="layer"
     id="layer1">
    <g
       id="g996"
       transform="matrix(0.73686915,0,0,0.73686915,-1205.3481,-72.288373)">
      <path
         style="fill:#241c1c;fill-opacity:1;stroke:none;stroke-width:0.264583px;stroke-linecap:butt;stroke-linejoin:miter;stroke-opacity:1"
         d="m 1781.7523,400.70383 c 35.6194,-10.60369 49.5951,-34.28301 -12.6285,-33.94323 -10.065,0.004 -20.4262,-4.65431 -22.6511,-10.22305 l 5.0113,2.20498 c 8.057,11.56577 48.7761,-1.57077 63.3429,8.28535 0.1083,-6.8331 -10.7105,-14.12532 -31.8051,-21.84929 -18.2868,-8.34497 -19.883,-11.77225 -17.4393,-27.72921 -3.8829,-28.75862 -60.1118,10.66799 -74.5014,-17.17207 l 2.2718,-1.87089 c 14.3593,17.38997 30.9616,6.58071 38.42,3.47451 33.8709,-13.51275 41.0497,6.16643 41.2263,7.684 37.0084,-24.65334 33.7787,-38.74017 3.675,-45.76991 -24.0738,-6.94261 -21.084,-19.08388 -14.0317,-32.00552 l 3.9422,-0.0668 c -13.7174,25.37642 17.0761,24.33188 32.0724,32.27279 23.1085,11.69922 12.3323,28.51312 -11.5594,47.30671 10.9279,-1.95287 13.37,-1.68077 28.7983,-2.27179 22.9236,-3.68477 20.7238,-10.02024 24.2547,-12.89576 l 2.3386,0.20045 c -4.5287,14.97947 -16.6654,13.62399 -26.8606,16.43708 -61.4244,8.84891 -9.0029,21.41097 -5.6127,24.58881 39.7434,19.94875 32.3692,38.62185 33.3419,41.29312 0.3926,16.51331 8.559,18.30455 15.034,22.48406 z"
         id="path925"
         sodipodi:nodetypes="cccccccccccccccccccccccc" />
      <path
         style="fill:#241c1c;stroke:none;stroke-width:0.264583px;stroke-linecap:butt;stroke-linejoin:miter;stroke-opacity:1"
         d="m 1727.5402,423.14434 167.4434,0.37798 c 8.4611,0.0491 7.8425,-1.12827 11.3393,-5.10267 l 4.1577,-5.66966 c 1.0962,-1.46131 2.1336,-3.04046 2.2679,-6.42559 l 4.7915,-0.0449 c 3.2956,-0.59489 3.7187,-4.84065 0.3112,-5.62479 h -216.7694 c -3.9756,0.10329 -3.8432,5.46991 0.189,5.48066 l 4.5357,0.18899 c -0.148,1.8861 0.7953,3.33566 1.8899,4.72469 l 5.8586,7.55955 c 3.3026,4.76089 3.3452,4.56078 13.9852,4.5357 z"
         id="path923"
         sodipodi:nodetypes="ccccccccccccc" />
      <path
         style="fill:#e9afaf;fill-opacity:1;stroke:none;stroke-width:0.264583px;stroke-linecap:butt;stroke-linejoin:miter;stroke-opacity:1"
         d="m 1746.4727,356.53755 c -1.8064,0.593 -3.6803,0.30972 -5.6127,-0.73499 0.1252,3.15645 -9.6072,3.15155 -9.0871,0 -2.2405,0.82367 -4.9878,0.66123 -6.1472,-0.40092 -2.4507,4.08081 -8.0576,3.33217 -9.4881,0.13364 -1.9807,3.10927 -10.5253,-2.04921 -3.0068,-4.94448 -1.2092,-1.61975 0.1473,-6.27062 4.0759,-5.87994 -0.053,-3.00384 4.6744,-5.18706 7.9513,-3.94222 -0.5243,-3.64643 2.8828,-4.8339 5.0781,-4.00904 1.5248,-3.51389 2.9084,-7.15246 10.6908,-5.14493 2.9793,-8.21435 22.8285,-6.56044 18.7757,6.34765 0.1752,-0.16508 5.777,0.29795 4.6103,4.2763 6.9085,-0.65622 13.3235,6.32947 4.41,11.0917 0.3959,2.74703 -4.0662,3.93371 -6.6817,1.46997 -1.5532,2.63406 -3.7736,6.53864 -10.5572,3.94224 z"
         id="path927"
         sodipodi:nodetypes="cccccccccccccccc" />
      <path
         style="fill:#c83737;fill-opacity:1;stroke:none;stroke-width:0.397382px;stroke-linecap:butt;stroke-linejoin:miter;stroke-opacity:1"
         d="m 1691.0811,300.27731 c -2.7131,0.89064 -5.5275,0.46519 -8.4298,-1.10389 0.188,4.74074 -14.4292,4.73337 -13.6481,0 -3.365,1.23708 -7.4913,0.99311 -9.2326,-0.60214 -3.6807,6.12903 -12.1019,5.00465 -14.2503,0.20072 -2.9749,4.66987 -15.8082,-3.07775 -4.516,-7.42621 -1.8161,-2.43273 0.2212,-9.41796 6.1217,-8.83119 -0.08,-4.51153 7.0205,-7.79055 11.9422,-5.9209 -0.7875,-5.47664 4.3297,-7.26012 7.6269,-6.02125 2.2901,-5.27759 4.3681,-10.74243 16.0567,-7.72727 4.4746,-12.3373 34.2865,-9.85325 28.1995,9.53366 0.2632,-0.24794 8.6766,0.44749 6.9243,6.42264 10.3761,-0.98559 20.0109,9.50636 6.6235,16.65883 0.5946,4.12582 -6.1071,5.90813 -10.0354,2.20778 -2.3327,3.95614 -5.6676,9.8205 -15.856,5.92094 z"
         id="path927-7"
         sodipodi:nodetypes="cccccccccccccccc" />
      <path
         style="fill:#de8787;fill-opacity:1;stroke:none;stroke-width:0.56231px;stroke-linecap:butt;stroke-linejoin:miter;stroke-opacity:1"
         d="m 1762.6425,231.7895 c 4.3116,2.96118 7.8216,0.65824 11.9285,-1.56205 -0.2661,6.70831 20.4179,6.69789 19.3126,0 4.7616,1.75052 10.6004,1.40529 13.0644,-0.85206 5.2084,8.67282 17.1246,7.08176 20.1648,0.28402 4.2095,6.60804 22.3691,-4.35513 6.3902,-10.50836 2.5699,-3.4424 -0.313,-13.32675 -8.6623,-12.49645 0.1126,-6.38397 -9.9344,-11.02391 -16.8987,-8.37828 1.1143,-7.74965 -6.1267,-10.27335 -10.7923,-8.5203 -3.2406,-7.46796 -6.1812,-15.2009 -22.7209,-10.93436 -6.3318,-17.45771 -48.5167,-13.9427 -39.9034,13.49047 -0.3723,-0.35084 -12.2777,0.63322 -9.7981,9.08829 -14.6824,-1.39464 -28.3161,13.45183 -9.3725,23.57285 -0.8414,5.83818 8.6418,8.3602 14.2005,3.12409 3.3009,5.59808 8.0199,13.89637 22.4369,8.37832 5.3209,0.50389 9.8216,0.0508 10.6503,-4.68618 z"
         id="path927-2"
         sodipodi:nodetypes="cccccccccccccccc" />
      <path
         style="fill:#808000;fill-opacity:1;stroke:none;stroke-width:0.199495px;stroke-linecap:butt;stroke-linejoin:miter;stroke-opacity:1"
         d="m 1838.2573,296.88928 c 1.3621,0.44712 2.775,0.23353 4.232,-0.55418 -0.094,2.37995 7.2438,2.37626 6.8516,0 1.6894,0.62105 3.7608,0.49857 4.635,-0.30229 1.8478,3.07692 6.0754,2.51244 7.154,0.10076 1.4934,2.34438 7.936,-1.54509 2.2671,-3.72812 0.9118,-1.22128 -0.111,-4.72803 -3.0732,-4.43345 0.04,-2.26489 -3.5245,-3.91103 -5.9953,-2.97242 0.3954,-2.7494 -2.1736,-3.64475 -3.8288,-3.02281 -1.1497,-2.64946 -2.1929,-5.39293 -8.0608,-3.87926 -2.2464,-6.19359 -17.2127,-4.94655 -14.1569,4.78611 -0.1321,-0.12447 -4.3558,0.22465 -3.4761,3.22432 -5.209,-0.49479 -10.0459,4.7724 -3.3251,8.3631 -0.2986,2.07125 3.0659,2.96601 5.0379,1.10835 1.1711,1.98608 2.8453,4.93012 7.9601,2.97244 z"
         id="path927-5"
         sodipodi:nodetypes="cccccccccccccccc" />
    </g>
  </g>
</svg>
